<svg viewBox="0 0 160 160" version="1.1" id="svg_null" xmlns="http://www.w3.org/2000/svg" xmlns:cc="http://creativecommons.org/ns#" xmlns:dc="http://purl.org/dc/elements/1.1/" xmlns:inkscape="http://www.inkscape.org/namespaces/inkscape" xmlns:rdf="http://www.w3.org/1999/02/22-rdf-syntax-ns#" xmlns:sodipodi="http://sodipodi.sourceforge.net/DTD/sodipodi-0.dtd" xmlns:svg="http://www.w3.org/2000/svg" xmlns:xlink="http://www.w3.org/1999/xlink" width="320" height="320">
  <g id="root" stroke="none" stroke-width="1" fill="none" fill-rule="evenodd">
    <rect id="background" fill="#F7F7F7" x="0" y="0" width="160" height="160"></rect>
    <path
      d="M77.487 38.842l2.581 0.004l2.001 -0.003c0.01 0 0.022 0 0.033 -0.001c0.258 -0.012 0.53 -0.038 0.801 -0.082c0.601 -0.097 1.107 -0.268 1.448 -0.512c0.163 -0.117 0.282 -0.247 0.36 -0.39c0.484 -0.906 0.34 -1.718 -0.398 -2.116c-0.606 -0.328 -1.356 -0.105 -1.678 0.496l-0.881 -0.472c0.583 -1.09 1.943 -1.494 3.035 -0.904c1.272 0.687 1.527 2.115 0.803 3.468c-0.1 0.188 -0.232 0.358 -0.39 0.51l40.892 -0.053l4.495 0.065l-0.014 1l-4.488 -0.065l-43.994 0.056c-0.151 0.006 -0.267 0.006 -0.339 0.005l-1.685 -0.003l-2.234 0.003c-0.077 0.002 -0.205 0.001 -0.374 -0.006l-43.959 -0.056l-4.488 0.065l-0.014 -1l4.496 -0.065l40.89 0.052c-0.157 -0.15 -0.288 -0.32 -0.389 -0.508c-0.724 -1.352 -0.469 -2.78 0.804 -3.467c1.092 -0.59 2.451 -0.186 3.035 0.904l-0.882 0.472c-0.321 -0.601 -1.072 -0.824 -1.678 -0.497c-0.737 0.398 -0.882 1.21 -0.397 2.116c0.077 0.144 0.196 0.274 0.36 0.39c0.34 0.245 0.846 0.416 1.447 0.513c0.272 0.044 0.543 0.07 0.801 0.081zm1.461 -4.793c0 0 0.876 -0.876 1 -2.049c0.127 1.173 1 2.049 1 2.049l0 0.438c-0.956 1.054 -1 3.513 -1 3.513c0 0 -0.043 -2.459 -1 -3.513l0 -0.438z"
      id="shape.primary" fill="#084a83" fill-rule="nonzero"></path>
    <path
      d="M77.487 126.842l2.581 0.004l2.001 -0.003c0.01 0 0.022 0 0.033 -0.001c0.258 -0.012 0.53 -0.038 0.801 -0.082c0.601 -0.097 1.107 -0.268 1.448 -0.512c0.163 -0.117 0.282 -0.247 0.36 -0.39c0.484 -0.906 0.34 -1.718 -0.398 -2.116c-0.606 -0.328 -1.356 -0.105 -1.678 0.496l-0.881 -0.472c0.583 -1.09 1.943 -1.494 3.035 -0.904c1.272 0.687 1.527 2.115 0.803 3.468c-0.1 0.188 -0.232 0.358 -0.39 0.51l40.892 -0.053l4.495 0.065l-0.014 1l-4.488 -0.065l-43.994 0.056c-0.151 0.006 -0.267 0.006 -0.339 0.005l-1.685 -0.003l-2.234 0.003c-0.077 0.002 -0.205 0.001 -0.374 -0.006l-43.959 -0.056l-4.488 0.065l-0.014 -1l4.496 -0.065l40.89 0.052c-0.157 -0.15 -0.288 -0.32 -0.389 -0.508c-0.724 -1.352 -0.469 -2.78 0.804 -3.467c1.092 -0.59 2.451 -0.186 3.035 0.904l-0.882 0.472c-0.321 -0.601 -1.072 -0.824 -1.678 -0.497c-0.737 0.398 -0.882 1.21 -0.397 2.116c0.077 0.144 0.196 0.274 0.36 0.39c0.34 0.245 0.846 0.416 1.447 0.513c0.272 0.044 0.543 0.07 0.801 0.081zm1.461 -4.793c0 0 0.876 -0.876 1 -2.049c0.127 1.173 1 2.049 1 2.049l0 0.438c-0.956 1.054 -1 3.513 -1 3.513c0 0 -0.043 -2.459 -1 -3.513l0 -0.438z"
      id="shape.primary" fill="#084a83" fill-rule="nonzero"
      transform="translate(79.794678, 123.925911) scale(1, -1) translate(-79.794678, -123.925911)"></path>
    <g id="Group-2" transform="translate(24.000000, 84.000000)">
      <rect id="Rectangle-3" x="0" y="0" width="112" height="12"></rect><text id="captionText.primary" opacity=".596"
        font-family="Amiri" font-size="12" font-weight="400" line-spacing="12" fill="#084a83" data-text-alignment="C"
        font-style="italic">
        <tspan x="35.359375" y="9.5"> write fast</tspan>
      </text>
    </g>
    <g id="Group" transform="translate(24.000000, 67.000000)">
      <rect id="Rectangle-2" x="0" y="0" width="112" height="16"></rect><text id="headerText.primary"
        font-family="Amiri" font-size="16" font-weight="700" line-spacing="16" fill="#084a83" data-text-alignment="C"
        font-style="italic">
        <tspan x="38.2734375" y="12.5">Fiary</tspan>
      </text>
    </g>
    <path
      d="M20.381 49.29c-1.422 2.893 -3.875 4.85 -7.381 5.381l0 50.735c1.099 0.212 2.196 0.565 3.242 1.097c2.852 1.45 4.774 3.942 5.29 7.497l117.012 0c0.207 -1.115 0.553 -2.23 1.075 -3.29c1.422 -2.893 3.875 -4.85 7.381 -5.381l0 -50.735c-1.099 -0.212 -2.196 -0.565 -3.242 -1.097c-2.852 -1.45 -4.774 -3.942 -5.29 -7.497l-117.012 0c-0.207 1.115 -0.553 2.23 -1.075 3.29zm-0.71 -5.29l120.659 0c0 8.816 8.67 8.816 8.67 8.816l0 54.368c-8.67 0 -8.67 8.816 -8.67 8.816l-120.66 0c0 -8.816 -8.67 -8.816 -8.67 -8.816l0 -54.368c8.67 0 8.67 -8.816 8.67 -8.816z"
      id="shape.primary" fill="#084a83" fill-rule="nonzero"></path>
    <path
      d="M23.92 53.264c-1.3 2.456 -3.575 4.031 -6.92 4.29l0 44.927c0.13 0.016 0.267 0.035 0.412 0.058c1.03 0.162 2.062 0.454 3.036 0.914c2.584 1.22 4.262 3.37 4.55 6.547l110.029 0c0.126 -0.961 0.44 -2.107 1.053 -3.264c1.3 -2.456 3.575 -4.031 6.92 -4.29l0 -44.927c-0.13 -0.016 -0.267 -0.035 -0.412 -0.058c-1.03 -0.162 -2.062 -0.454 -3.036 -0.914c-2.584 -1.22 -4.262 -3.37 -4.55 -6.547l-110.029 0c-0.126 0.961 -0.44 2.107 -1.053 3.264zm0.122 -4.264l111.916 0c0 7.592 8.042 7.592 8.042 7.592l0 46.816c-8.042 0 -8.042 7.592 -8.042 7.592l-111.916 0c0 -7.592 -8.042 -7.592 -8.042 -7.592l0 -46.816c8.042 0 8.042 -7.592 8.042 -7.592z"
      id="shape.primary" fill="#084a83" fill-rule="nonzero"></path>
  </g>
</svg>
